<svg width="130" height="87" viewBox="0 0 130 87" fill="none" xmlns="http://www.w3.org/2000/svg">
<path d="M14.5332 53.5727L12.1524 49.8995C12.1524 49.8995 8.89436 45.7452 9.12931 45.9347C9.36426 46.1242 9.12931 41.1682 9.12931 41.1682L12.0741 36.6496C12.0741 36.6496 16.1936 34.9004 16.2719 34.9296C16.3502 34.9587 20.9709 35.1919 20.9709 35.1919L24.6832 37.4804L26.8604 41.7367L26.9701 45.3371L24.8555 48.7625L22.3493 52.1588L21.6758 54.3744L16.6948 55.1324L14.1886 54.4764L14.5332 53.5727Z" fill="#EFBE22"/>
<path d="M15.9116 56.896H19.8432" stroke="#A0A8AF" stroke-width="2" stroke-miterlimit="10" stroke-linecap="square"/>
<path d="M13.437 55.3074H22.2086" stroke="#2C3E50" stroke-width="2" stroke-miterlimit="10" stroke-linecap="round"/>
<path d="M14.6587 58.8057H20.9241" stroke="#2C3E50" stroke-width="2" stroke-miterlimit="10" stroke-linecap="round"/>
<path d="M15.8804 61.0796H19.8119" stroke="#2C3E50" stroke-width="2" stroke-miterlimit="10" stroke-linecap="round"/>
<path d="M1 43.6169H5.88699" stroke="#2C3E50" stroke-width="2" stroke-miterlimit="10" stroke-linecap="round" stroke-linejoin="round"/>
<path d="M4.60254 31.5916L8.37747 35.119" stroke="#2C3E50" stroke-width="2" stroke-miterlimit="10" stroke-linecap="round" stroke-linejoin="round"/>
<path d="M18.2456 27V31.5332" stroke="#2C3E50" stroke-width="2" stroke-miterlimit="10" stroke-linecap="round" stroke-linejoin="round"/>
<path d="M35.9451 43.6169H31.0737" stroke="#2C3E50" stroke-width="2" stroke-miterlimit="10" stroke-linecap="round" stroke-linejoin="round"/>
<path d="M32.3584 31.5916L28.5679 35.119" stroke="#2C3E50" stroke-width="2" stroke-miterlimit="10" stroke-linecap="round" stroke-linejoin="round"/>
<path d="M14.2669 53.2082C14.2669 53.2082 12.9511 50.5407 10.9305 48.5C6.51343 44.0397 9.3172 39.2878 11.9173 36.9264C16.0055 33.224 22.7252 34.4921 25.5916 38.6756C28.6616 43.1505 26.5001 46.882 24.2289 49.2726C22.7722 50.8031 21.7227 52.7855 21.7227 53.179" stroke="#2C3E50" stroke-width="2" stroke-miterlimit="10" stroke-linecap="round" stroke-linejoin="round"/>
<path d="M18.2454 42.5676L16.1309 46.1534L20.2817 46.0805L17.9008 49.9724" stroke="#2C3E50" stroke-width="2" stroke-miterlimit="10" stroke-linecap="round" stroke-linejoin="round"/>
<g filter="url(#filter0_d)">
<path d="M41.188 44.328C41.188 41.832 41.728 39.612 42.808 37.668C43.888 35.7 45.388 34.176 47.308 33.096C49.252 31.992 51.448 31.44 53.896 31.44C56.896 31.44 59.464 32.232 61.6 33.816C63.736 35.4 65.164 37.56 65.884 40.296H59.116C58.612 39.24 57.892 38.436 56.956 37.884C56.044 37.332 55 37.056 53.824 37.056C51.928 37.056 50.392 37.716 49.216 39.036C48.04 40.356 47.452 42.12 47.452 44.328C47.452 46.536 48.04 48.3 49.216 49.62C50.392 50.94 51.928 51.6 53.824 51.6C55 51.6 56.044 51.324 56.956 50.772C57.892 50.22 58.612 49.416 59.116 48.36H65.884C65.164 51.096 63.736 53.256 61.6 54.84C59.464 56.4 56.896 57.18 53.896 57.18C51.448 57.18 49.252 56.64 47.308 55.56C45.388 54.456 43.888 52.932 42.808 50.988C41.728 49.044 41.188 46.824 41.188 44.328ZM78.7979 57.288C76.8299 57.288 75.0539 56.868 73.4699 56.028C71.9099 55.188 70.6739 53.988 69.7619 52.428C68.8739 50.868 68.4299 49.044 68.4299 46.956C68.4299 44.892 68.8859 43.08 69.7979 41.52C70.7099 39.936 71.9579 38.724 73.5419 37.884C75.1259 37.044 76.9019 36.624 78.8699 36.624C80.8379 36.624 82.6139 37.044 84.1979 37.884C85.7819 38.724 87.0299 39.936 87.9419 41.52C88.8539 43.08 89.3099 44.892 89.3099 46.956C89.3099 49.02 88.8419 50.844 87.9059 52.428C86.9939 53.988 85.7339 55.188 84.1259 56.028C82.5419 56.868 80.7659 57.288 78.7979 57.288ZM78.7979 51.96C79.9739 51.96 80.9699 51.528 81.7859 50.664C82.6259 49.8 83.0459 48.564 83.0459 46.956C83.0459 45.348 82.6379 44.112 81.8219 43.248C81.0299 42.384 80.0459 41.952 78.8699 41.952C77.6699 41.952 76.6739 42.384 75.8819 43.248C75.0899 44.088 74.6939 45.324 74.6939 46.956C74.6939 48.564 75.0779 49.8 75.8459 50.664C76.6379 51.528 77.6219 51.96 78.7979 51.96ZM102.044 31.728C104.708 31.728 107.036 32.256 109.028 33.312C111.02 34.368 112.556 35.856 113.636 37.776C114.74 39.672 115.292 41.868 115.292 44.364C115.292 46.836 114.74 49.032 113.636 50.952C112.556 52.872 111.008 54.36 108.992 55.416C107 56.472 104.684 57 102.044 57H92.5758V31.728H102.044ZM101.648 51.672C103.976 51.672 105.788 51.036 107.084 49.764C108.38 48.492 109.028 46.692 109.028 44.364C109.028 42.036 108.38 40.224 107.084 38.928C105.788 37.632 103.976 36.984 101.648 36.984H98.7318V51.672H101.648ZM121.612 57.288C120.532 57.288 119.644 56.976 118.948 56.352C118.276 55.704 117.94 54.912 117.94 53.976C117.94 53.016 118.276 52.212 118.948 51.564C119.644 50.916 120.532 50.592 121.612 50.592C122.668 50.592 123.532 50.916 124.204 51.564C124.9 52.212 125.248 53.016 125.248 53.976C125.248 54.912 124.9 55.704 124.204 56.352C123.532 56.976 122.668 57.288 121.612 57.288Z" fill="#FEB633"/>
</g>
<defs>
<filter id="filter0_d" x="37.188" y="31.4399" width="92.06" height="33.848" filterUnits="userSpaceOnUse" color-interpolation-filters="sRGB">
<feFlood flood-opacity="0" result="BackgroundImageFix"/>
<feColorMatrix in="SourceAlpha" type="matrix" values="0 0 0 0 0 0 0 0 0 0 0 0 0 0 0 0 0 0 127 0"/>
<feOffset dy="4"/>
<feGaussianBlur stdDeviation="2"/>
<feColorMatrix type="matrix" values="0 0 0 0 0 0 0 0 0 0 0 0 0 0 0 0 0 0 0.25 0"/>
<feBlend mode="normal" in2="BackgroundImageFix" result="effect1_dropShadow"/>
<feBlend mode="normal" in="SourceGraphic" in2="effect1_dropShadow" result="shape"/>
</filter>
</defs>
</svg>
